<svg version="1.1" viewBox="0.0 0.0 960.0 720.0" fill="none" stroke="none" stroke-linecap="square" stroke-miterlimit="10" xmlns:xlink="http://www.w3.org/1999/xlink" xmlns="http://www.w3.org/2000/svg"><clipPath id="p.0"><path d="m0 0l960.0 0l0 720.0l-960.0 0l0 -720.0z" clip-rule="nonzero"/></clipPath><g clip-path="url(#p.0)"><path fill="#000000" fill-opacity="0.0" d="m0 0l960.0 0l0 720.0l-960.0 0z" fill-rule="evenodd"/><path fill="#000000" d="m543.6641 456.81488l0 0c-7.5928345 0 -13.748047 -6.1552124 -13.748047 -13.748047l0 0c0 -3.6462097 1.4484863 -7.1430664 4.0267334 -9.721313c2.578247 -2.578247 6.0751343 -4.026703 9.721313 -4.026703l0 0c7.5928345 0 13.748047 6.1552124 13.748047 13.748016l0 0c0 7.5928345 -6.1552124 13.748047 -13.748047 13.748047z" fill-rule="evenodd"/><path stroke="#000000" stroke-width="1.0" stroke-linejoin="round" stroke-linecap="butt" d="m543.6641 456.81488l0 0c-7.5928345 0 -13.748047 -6.1552124 -13.748047 -13.748047l0 0c0 -3.6462097 1.4484863 -7.1430664 4.0267334 -9.721313c2.578247 -2.578247 6.0751343 -4.026703 9.721313 -4.026703l0 0c7.5928345 0 13.748047 6.1552124 13.748047 13.748016l0 0c0 7.5928345 -6.1552124 13.748047 -13.748047 13.748047z" fill-rule="evenodd"/><path fill="#ffffff" d="m305.71793 510.43692l0 -285.7953l270.99216 0l0 285.7953z" fill-rule="evenodd"/><path stroke="#000000" stroke-width="4.0" stroke-linejoin="round" stroke-linecap="butt" d="m305.71793 510.43692l0 -285.7953l270.99216 0l0 285.7953z" fill-rule="evenodd"/><path fill="#000000" fill-opacity="0.0" d="m477.20023 446.08588l0 0c-34.68454 10.058289 -72.144135 -2.3081055 -93.23453 -30.779205c-21.090393 -28.47113 -21.152832 -66.75784 -0.15542603 -95.29315c20.997406 -28.53534 58.416504 -41.01602 93.1337 -31.06363l-24.0831 78.60495z" fill-rule="evenodd"/><path fill="#000000" fill-opacity="0.0" d="m477.20023 446.08588l0 0c-34.68454 10.058289 -72.144135 -2.3081055 -93.23453 -30.779205c-21.090393 -28.47113 -21.152832 -66.75784 -0.15542603 -95.29315c20.997406 -28.53534 58.416504 -41.01602 93.1337 -31.06363" fill-rule="evenodd"/><path stroke="#000000" stroke-width="24.0" stroke-linejoin="round" stroke-linecap="butt" d="m477.20023 446.08588l0 0c-34.68454 10.058289 -72.144135 -2.3081055 -93.23453 -30.779205c-21.090393 -28.47113 -21.152832 -66.75784 -0.15542603 -95.29315c20.997406 -28.53534 58.416504 -41.01602 93.1337 -31.06363" fill-rule="evenodd"/><path fill="#000000" fill-opacity="0.0" d="m483.52548 401.21838c-18.550476 15.883179 -46.697693 14.825378 -63.924988 -2.4023743c-17.227295 -17.227783 -17.452423 -44.54315 -0.5112915 -62.035736c16.941132 -17.492584 45.067352 -18.986542 63.87726 -3.3929138l-30.10553 34.151z" fill-rule="evenodd"/><path fill="#000000" fill-opacity="0.0" d="m483.52548 401.21838c-18.550476 15.883179 -46.697693 14.825378 -63.924988 -2.4023743c-17.227295 -17.227783 -17.452423 -44.54315 -0.5112915 -62.035736c16.941132 -17.492584 45.067352 -18.986542 63.87726 -3.3929138" fill-rule="evenodd"/><path stroke="#000000" stroke-width="24.0" stroke-linejoin="round" stroke-linecap="butt" d="m483.52548 401.21838c-18.550476 15.883179 -46.697693 14.825378 -63.924988 -2.4023743c-17.227295 -17.227783 -17.452423 -44.54315 -0.5112915 -62.035736c16.941132 -17.492584 45.067352 -18.986542 63.87726 -3.3929138" fill-rule="evenodd"/><path fill="#ffffff" d="m538.90936 321.29617l-9.070862 -30.173218l30.078735 -8.913391l9.070862 30.173248z" fill-rule="evenodd"/><path stroke="#ffffff" stroke-width="0.7034120734908136" stroke-linejoin="round" stroke-linecap="butt" d="m538.90936 321.29617l-9.070862 -30.173218l30.078735 -8.913391l9.070862 30.173248z" fill-rule="evenodd"/><path fill="#000000" fill-opacity="0.0" d="m448.54092 487.18176l0 0c-66.7139 -1.9856873 -119.80182 -54.710114 -120.0452 -119.2233c-0.24337769 -64.51318 52.445343 -117.61044 119.14249 -120.066284l4.714966 119.62976z" fill-rule="evenodd"/><path fill="#000000" fill-opacity="0.0" d="m448.54092 487.18176l0 0c-66.7139 -1.9856873 -119.80182 -54.710114 -120.0452 -119.2233c-0.24337769 -64.51318 52.445343 -117.61044 119.14249 -120.066284" fill-rule="evenodd"/><path stroke="#000000" stroke-width="24.0" stroke-linejoin="round" stroke-linecap="butt" d="m448.54092 487.18176l0 0c-66.7139 -1.9856873 -119.80182 -54.710114 -120.0452 -119.2233c-0.24337769 -64.51318 52.445343 -117.61044 119.14249 -120.066284" fill-rule="evenodd"/><path fill="#000000" d="m450.01935 259.9234l0 0c-6.644806 0 -12.031494 -5.386688 -12.031494 -12.031494l0 0c0 -3.1909485 1.2676086 -6.2512207 3.5239258 -8.507553c2.2563477 -2.2563477 5.31662 -3.523941 8.507568 -3.523941l0 0c6.644806 0 12.031494 5.386673 12.031494 12.031494l0 0c0 6.644806 -5.386688 12.031494 -12.031494 12.031494z" fill-rule="evenodd"/><path fill="#000000" d="m475.08505 458.5611l0 0c-6.644806 0 -12.031494 -5.386688 -12.031494 -12.031494l0 0c0 -3.1909485 1.2675781 -6.25119 3.5239258 -8.507538c2.2563477 -2.2563477 5.31662 -3.5239563 8.507568 -3.5239563l0 0c6.644806 0 12.031494 5.386688 12.031494 12.031494l0 0c0 6.644806 -5.386688 12.031494 -12.031494 12.031494z" fill-rule="evenodd"/><path fill="#000000" d="m450.61636 499.20264l0 0c-6.644806 0 -12.031494 -5.3866577 -12.031494 -12.031494l0 0c0 -3.1909485 1.2676086 -6.25119 3.5239258 -8.507538c2.2563477 -2.2563477 5.31662 -3.5239563 8.507568 -3.5239563l0 0c6.644806 0 12.031494 5.386688 12.031494 12.031494l0 0c0 6.6448364 -5.386688 12.031494 -12.031494 12.031494z" fill-rule="evenodd"/><path fill="#000000" d="m475.08505 300.27188l0 0c-6.644806 0 -12.031494 -5.386688 -12.031494 -12.031525l0 0c0 -3.1909485 1.2675781 -6.25119 3.5239258 -8.507538c2.2563477 -2.2563477 5.31662 -3.5239563 8.507568 -3.5239563l0 0c6.644806 0 12.031494 5.386688 12.031494 12.031494l0 0c0 6.6448364 -5.386688 12.031525 -12.031494 12.031525z" fill-rule="evenodd"/><path fill="#000000" d="m483.85712 346.23798l0 0c-6.6448364 0 -12.031494 -5.386688 -12.031494 -12.031525l0 0c0 -3.1909485 1.2675781 -6.25119 3.5239258 -8.507538c2.2563477 -2.2563477 5.3165894 -3.5239563 8.507568 -3.5239563l0 0c6.644806 0 12.031494 5.386688 12.031494 12.031494l0 0c0 6.6448364 -5.386688 12.031525 -12.031494 12.031525z" fill-rule="evenodd"/><path fill="#000000" d="m505.2056 379.6378l0 0c-6.644806 0 -12.031494 -5.386688 -12.031494 -12.031494l0 0c0 -3.1909485 1.2675781 -6.2512207 3.5239258 -8.507568c2.2563477 -2.2563477 5.31662 -3.5239258 8.507568 -3.5239258l0 0c6.644806 0 12.031464 5.386688 12.031464 12.031494l0 0c0 6.644806 -5.3866577 12.031494 -12.031464 12.031494z" fill-rule="evenodd"/><path fill="#000000" d="m454.5086 379.6378l0 0c-6.644806 0 -12.031494 -5.386688 -12.031494 -12.031494l0 0c0 -3.1909485 1.2676086 -6.2512207 3.5239563 -8.507568c2.2563477 -2.2563477 5.3165894 -3.5239258 8.507538 -3.5239258l0 0c6.6448364 0 12.031525 5.386688 12.031525 12.031494l0 0c0 6.644806 -5.386688 12.031494 -12.031525 12.031494z" fill-rule="evenodd"/><path fill="#000000" d="m555.0541 379.6378l0 0c-6.6448364 0 -12.031494 -5.386688 -12.031494 -12.031494l0 0c0 -3.1909485 1.2675781 -6.2512207 3.5239258 -8.507568c2.2563477 -2.2563477 5.3165894 -3.5239258 8.507568 -3.5239258l0 0c6.6448364 0 12.031494 5.386688 12.031494 12.031494l0 0c0 6.644806 -5.3866577 12.031494 -12.031494 12.031494z" fill-rule="evenodd"/><path fill="#000000" d="m483.85712 412.88947l0 0c-6.6448364 0 -12.031494 -5.3866577 -12.031494 -12.031494l0 0c0 -3.1909485 1.2675781 -6.25119 3.5239258 -8.507538c2.2563477 -2.2563477 5.3165894 -3.5239563 8.507568 -3.5239563l0 0c6.644806 0 12.031494 5.386688 12.031494 12.031494l0 0c0 6.6448364 -5.386688 12.031494 -12.031494 12.031494z" fill-rule="evenodd"/></g></svg>